# AST/ASF file generated using VICON BodyLanguage
# -----------------------------------------------
:version 1.10
:name VICON
:units
  mass 1.0
  length 0.45
  angle deg
:documentation
   .ast/.asf automatically generated from VICON data using
   VICON BodyBuilder and BodyLanguage model FoxedUp or BRILLIANT.MOD
:root
   order TX TY TZ RX RY RZ
   axis XYZ
   position 0 0 0  
   orientation 0 0 0 
:bonedata
  begin
     id 1 
     name lhipjoint
     direction 0.566809 -0.746272 0.349008 
     length 2.40479 
     axis 0 0 0  XYZ
  end
  begin
     id 2 
     name lfemur
     direction 0.34202 -0.939693 0  
     length 7.1578  
     axis 0 0 20  XYZ
    dof rx ry rz
    limits (-160.0 20.0)
           (-70.0 70.0)
           (-60.0 70.0)
  end
  begin
     id 3 
     name ltibia
     direction 0.34202 -0.939693 0   
     length 7.49137   
     axis 0 0 20   XYZ
    dof rx
    limits (-10.0 170.0)
  end
  begin
     id 4 
     name lfoot
     direction 0.0665746 -0.182912 0.980873   
     length 2.36784   
     axis -90 7.62852e-016 20   XYZ
    dof rx rz
    limits (-45.0 90.0)
           (-70.0 20.0)
  end
  begin
     id 5 
     name ltoes
     direction 1.53601e-011 -4.22058e-011 1   
     length 1.18966   
     axis -90 7.62852e-016 20   XYZ
    dof rx
    limits (-90.0 20.0)
  end
  begin
     id 6 
     name rhipjoint
     direction -0.550236 -0.756381 0.353735   
     length 2.37265  
     axis 0 0 0  XYZ 
  end
  begin
     id 7 
     name rfemur
     direction -0.34202 -0.939693 0   
     length 7.43386   
     axis 0 0 -20   XYZ
    dof rx ry rz
    limits (-160.0 20.0)
           (-70.0 70.0)
           (-70.0 60.0)
  end
  begin
     id 8 
     name rtibia
     direction -0.34202 -0.939693 0   
     length 7.50908   
     axis 0 0 -20   XYZ
    dof rx
    limits (-10.0 170.0)
 end
 begin
     id 9 
     name rfoot
     direction -0.0683029 -0.187661 0.979856   
     length 2.41173  
     axis -90 -7.62852e-016 -20   XYZ
    dof rx rz
    limits (-45.0 90.0)
           (-20.0 70.0)
  end
  begin
     id 10 
     name rtoes
     direction -1.53528e-011 -4.21968e-011 1   
     length 1.21082   
     axis -90 -7.62852e-016 -20   XYZ
    dof rx
    limits (-90.0 20.0)
  end
  begin
     id 11 
     name lowerback
     direction 0.013823 0.995423 -0.0945635   
     length 2.04495   
     axis 0 0 0   XYZ
    dof rx ry rz
    limits (-20.0 45.0)
           (-30.0 30.0)
           (-30.0 30.0)
  end
  begin
     id 12 
     name upperback
     direction 0.0276657 0.9994 -0.020853   
     length 2.05008   
     axis 0 0 0   XYZ
    dof rx ry rz
    limits (-20.0 45.0)
           (-30.0 30.0)
           (-30.0 30.0)
  end
  begin
     id 13 
     name thorax
     direction 0.019782 0.999531 0.0233827   
     length 2.06488   
     axis 0 0 0   XYZ
    dof rx ry rz
    limits (-20.0 45.0)
           (-30.0 30.0)
           (-30.0 30.0)
  end
  begin
     id 14 
     name lowerneck
     direction -0.0308541 0.994709 0.0979874   
     length 1.75553   
     axis 0 0 0   XYZ
    dof rx ry rz
    limits (-20.0 45.0)
           (-30.0 30.0)
           (-30.0 30.0)
  end
  begin
     id 15 
     name upperneck
     direction 0.0588398 0.995804 -0.0700903   
     length 1.76878   
     axis 0 0 0   XYZ
    dof rx ry rz
    limits (-20.0 45.0)
           (-30.0 30.0)
           (-30.0 30.0)
  end
  begin
     id 16
     name head
     direction 0.0209966 0.999159 -0.0352225  
     length 1.77193  
     axis 0 0 0   XYZ
    dof rx ry rz
    limits (-20.0 45.0)
           (-30.0 30.0)
           (-30.0 30.0)
  end
  begin
     id 17 
     name lclavicle
     direction 0.938182 0.335073 -0.0868338  
     length 3.58396  
     axis 0 0 0   XYZ
    dof ry rz
    limits (-20.0 10.0)
           (0.0 20.0)
  end
  begin
     id 18 
     name lhumerus
     direction 1 -4.48971e-011 -1.26313e-017   
     length 4.983   
     axis 180 -30 -90   XYZ
    dof rx ry rz
    limits (-60.0 90.0)
           (-90.0 90.0)
           (-90.0 90.0)
  end
  begin
     id 19
     name lradius
     direction 1 -4.48948e-011 -5.89033e-027   
     length 3.48356   
     axis 180 -30 -90   XYZ
    dof rx
    limits (-10.0 170.0)
  end
  begin
     id 20
     name lwrist
     direction 1 -4.48977e-011 -1.48983e-026   
     length 1.74178   
     axis 9.0955e-015 90 90   XYZ
    dof ry
    limits (-180.0 0.0)
 end
  begin
     id 21 
     name lhand
     direction 1 -4.49046e-011 -2.98066e-026   
     length 0.715259   
     axis 1.90115e-014 90 90   XYZ
    dof rx rz
    limits (-90.0 90.0)
           (-45.0 45.0)
  end
  begin
     id 22 
     name lfingers
     direction 1 -4.48907e-011 -5.95731e-026   
     length 0.576661   
     axis 3.80223e-014 90 90   XYZ
    dof rx
    limits (0.0 90.0)
  end
  begin
     id 23
     name lthumb
     direction 0.707107 -6.34963e-011 0.707107   
     length 0.827973   
     axis -90 45 -3.84942e-014   XYZ
    dof rx rz
    limits (-45.0 45.0)
           (-45.0 45.0)
  end
  begin
     id 24 
     name rclavicle
     direction -0.909637 0.398485 -0.11735   
     length 3.44819  
     axis 0 0 0   XYZ 
    dof ry rz
    limits (-10.0 20.0)
           (-20.0 0.0)
  end
  begin
     id 25 
     name rhumerus
     direction -1 -4.48978e-011 -1.09333e-027  
     length 5.2419   
     axis 180 30 90   XYZ
    dof rx ry rz
    limits (-90.0 60.0)
           (-90.0 90.0)
           (-90.0 90.0)
  end
  begin
     id 26 
     name rradius
     direction -1 -4.48953e-011 -7.61841e-027   
     length 3.44417   
     axis 180 30 90   XYZ
    dof rx
    limits (-10.0 170.0)
  end
  begin
     id 27 
     name rwrist
     direction -1 -4.48977e-011 -1.48983e-026   
     length 1.72209   
     axis 9.0955e-015 -90 -90   XYZ
    dof ry
    limits (-180.0 0.0)
  end
  begin
     id 28
     name rhand
     direction -1 -4.49027e-011 -2.98038e-026   
     length 0.622529   
     axis 1.90115e-014 -90 -90   XYZ
    dof rx rz
    limits (-90.0 90.0)
           (-45.0 45.0)
  end
  begin
     id 29
     name rfingers
     direction -1 -4.48838e-011 -5.95531e-026   
     length 0.501899   
     axis 3.80223e-014 -90 -90   XYZ
    dof rx
    limits (0.0 90.0)
  end
  begin
     id 30
     name rthumb
     direction -0.707107 -6.34937e-011 0.707107   
     length 0.720629   
     axis -90 -45 3.84942e-014   XYZ
    dof rx rz
    limits (-45.0 45.0)
           (-45.0 45.0)
  end
:hierarchy
  begin
    root lhipjoint rhipjoint lowerback
    lhipjoint lfemur
    lfemur ltibia
    ltibia lfoot
    lfoot ltoes
    rhipjoint rfemur
    rfemur rtibia
    rtibia rfoot
    rfoot rtoes
    lowerback upperback
    upperback thorax
    thorax lowerneck lclavicle rclavicle
    lowerneck upperneck
    upperneck head
    lclavicle lhumerus
    lhumerus lradius
    lradius lwrist
    lwrist lhand lthumb
    lhand lfingers
    rclavicle rhumerus
    rhumerus rradius
    rradius rwrist
    rwrist rhand rthumb
    rhand rfingers
  end

#!OML:ASF F:\VICON\USERDATA\Patient Classification 1\PLAYGROUND\JustinFriday\JustinFriday.ASF
:FULLY-SPECIFIED
:DEGREES
408
root -26.8081 17.6343 -5.11253 180.983 20.3628 -182.203
lowerback 13.3353 1.46119 -0.925086
upperback 5.45019 2.4895 2.79127
thorax -1.90281 1.45343 3.05837
lowerneck -0.25721 -15.3196 -11.716
upperneck 13.5369 -21.5051 13.9486
head 6.98398 -10.1465 4.52463
rclavicle -3.77691e-014 -1.11319e-014
rhumerus -5.78065 -26.0079 -41.0066
rradius 43.9585
rwrist 13.768
rhand -31.7262 -19.5815
rfingers 7.12502
rthumb -4.98435 -49.5029
lclavicle -3.77691e-014 -1.11319e-014
lhumerus -31.3688 5.63673 81.6513
lradius 36.1235
lwrist 3.04055
lhand -15.3916 -13.1425
lfingers 7.12502
lthumb 10.7871 16.5605
rfemur -22.1521 -12.6466 32.7318
rtibia 33.3689
rfoot -24.9691 -13.6057
rtoes 47.8277
lfemur -14.1975 14.4006 -16.8175
ltibia 57.522
lfoot 10.3808 -19.8307
ltoes -4.9218
409
root -26.8314 17.629 -5.18934 180.689 21.5116 -182.068
lowerback 13.4544 1.71791 -0.126838
upperback 6.14336 2.99255 2.53197
thorax -1.22202 1.7438 2.27526
lowerneck -0.541573 -15.6885 -10.3119
upperneck 12.6806 -22.0282 14.2432
head 6.70417 -10.3465 4.35628
rclavicle 9.54166e-015 6.04305e-014
rhumerus -4.3331 -27.7394 -41.7132
rradius 42.496
rwrist 14.7743
rhand -31.4701 -18.0967
rfingers 7.12502
rthumb -4.73707 -48.0237
lclavicle 9.54166e-015 6.04305e-014
lhumerus -29.9866 3.25213 82.2835
lradius 34.4444
lwrist 3.10175
lhand -17.3113 -13.3729
lfingers 7.12502
lthumb 8.93495 16.4179
rfemur -21.4454 -12.5287 32.6168
rtibia 33.3659
rfoot -24.5226 -12.9558
rtoes 47.4233
lfemur -14.3467 14.1027 -16.7548
ltibia 59.1013
lfoot 7.72732 -20.9942
ltoes -10.7217
410
root -26.8129 17.7651 -5.25483 180.555 22.7877 -182.799
lowerback 14.6731 2.053 -1.55009
upperback 4.89053 3.15309 2.95688
thorax -3.28839 1.77463 3.42167
lowerneck 4.04484 -14.5723 -11.9539
upperneck 10.8855 -20.5772 15.1384
head 5.4534 -9.93364 5.44122
rclavicle 7.95139e-016 -1.90833e-014
rhumerus -4.20775 -25.84 -41.0214
rradius 41.3049
rwrist 15.3727
rhand -30.9248 -17.2409
rfingers 7.12502
rthumb -4.21048 -47.1791
lclavicle 7.95139e-016 -1.90833e-014
lhumerus -31.7993 2.77302 83.0888
lradius 32.8804
lwrist 3.20828
lhand -20.723 -17.3833
lfingers 7.12502
lthumb 5.64178 12.5216
rfemur -20.9046 -11.5093 31.7642
rtibia 32.9463
rfoot -24.7575 -12.7173
rtoes 47.184
lfemur -17.2778 13.8058 -17.1793
ltibia 61.6645
lfoot 10.4187 -19.4843
ltoes -8.26313
411
root -26.8321 17.6706 -5.27577 180.794 24.0871 -182.579
lowerback 15.8199 2.36849 -1.95305
upperback 4.10427 3.48212 3.3989
thorax -4.81034 1.94028 3.99949
lowerneck 3.6285 -14.3875 -13.4145
upperneck 13.551 -20.421 14.9552
head 6.47354 -9.77188 5.52867
rclavicle 3.61788e-014 2.8625e-014
rhumerus -3.95845 -23.381 -40.5322
rradius 40.591
rwrist 13.8652
rhand -31.075 -18.8504
rfingers 7.12502
rthumb -4.35556 -48.7856
lclavicle 3.61788e-014 2.8625e-014
lhumerus -34.7594 5.33033 82.546
lradius 36.7664
lwrist -2.54604
lhand -18.5807 -15.2449
lfingers 7.12502
lthumb 7.70986 14.5946
rfemur -20.9329 -10.2658 32.0732
rtibia 32.7137
rfoot -23.4335 -13.5562
rtoes 46.2412
lfemur -17.565 14.6274 -16.431
ltibia 63.7822
lfoot 7.54639 -19.3367
ltoes -14.9318
412
root -26.8459 17.6273 -5.27445 181.735 24.92 -181.365
lowerback 16.0617 2.36292 -1.06078
upperback 4.06359 3.66374 3.77109
thorax -4.97409 2.03364 3.84049
lowerneck 5.93353 -14.5148 -11.9545
upperneck 10.2865 -20.4907 14.9523
head 4.92704 -9.99205 5.5632
rclavicle 2.98177e-014 -4.45278e-014
rhumerus -1.99395 -24.357 -41.5389
rradius 38.8749
rwrist 14.4819
rhand -30.8795 -19.231
rfingers 7.12502
rthumb -4.16678 -49.1699
lclavicle 2.98177e-014 -4.45278e-014
lhumerus -34.1825 6.40426 81.744
lradius 36.9026
lwrist -10.2389
lhand -16.364 -12.7144
lfingers 7.12502
lthumb 9.84895 17.0352
rfemur -20.9902 -9.1387 33.4431
rtibia 31.9445
rfoot -22.4204 -14.5161
rtoes 44.5259
lfemur -20.012 14.2949 -14.8127
ltibia 66.8598
lfoot 5.94111 -17.3655
ltoes -11.4023
413
root -26.8605 17.6663 -5.36471 182.244 26.8113 -179.73
lowerback 15.1547 2.56023 1.06358
upperback 5.26794 4.32651 3.81408
thorax -3.123 2.39489 2.6258
lowerneck 2.11209 -14.9838 -6.03199
upperneck 11.2488 -20.4288 9.09662
head 4.61718 -9.815 2.77658
rclavicle 1.19271e-015 -1.27222e-014
rhumerus 0.609152 -27.0112 -43.0123
rradius 37.0006
rwrist 16.3765
rhand -29.1422 -17.8494
rfingers 7.12502
rthumb -2.48907 -47.8147
lclavicle 1.19271e-015 -1.27222e-014
lhumerus -31.3853 5.44711 81.6685
lradius 35.3382
lwrist -12.2062
lhand -21.0738 -13.4317
lfingers 7.12502
lthumb 5.3031 16.4819
rfemur -19.944 -8.17695 34.7998
rtibia 31.403
rfoot -21.2864 -14.3847
rtoes 42.3242
lfemur -21.171 14.4901 -12.7919
ltibia 69.5537
lfoot 4.85328 -14.1271
ltoes -5.15988
414
root -26.8782 17.6941 -5.41786 183.34 27.9602 -178.1
lowerback 13.9353 2.56652 3.26253
upperback 6.34791 4.65178 3.74076
thorax -1.17755 2.64506 1.38008
lowerneck 0.781556 -14.8261 -1.63823
upperneck 10.0127 -19.9173 5.49668
head 3.98474 -9.60036 1.33719
rclavicle 1.23246e-014 -2.22639e-014
rhumerus 3.07351 -29.2881 -44.6315
rradius 35.5207
rwrist 17.5888
rhand -27.3483 -17.7037
rfingers 7.12502
rthumb -0.756476 -47.6821
lclavicle 1.23246e-014 -2.22639e-014
lhumerus -29.9878 5.87591 81.2997
lradius 37.1937
lwrist -14.3214
lhand -12.075 -9.87679
lfingers 7.12502
lthumb 13.9848 19.6328
rfemur -19.4973 -7.65484 36.2893
rtibia 30.4126
rfoot -20.3958 -14.2098
rtoes 43.4578
lfemur -22.6044 14.2786 -11.1607
ltibia 72.101
lfoot 1.2717 -11.6343
ltoes -12.3858
415
root -26.898 17.7359 -5.44287 183.73 28.7533 -178.277
lowerback 13.0865 2.57902 3.46362
upperback 7.13322 4.67113 3.51861
thorax 0.135649 2.70998 1.12766
lowerneck -1.02888 -14.4692 0.788547
upperneck 10.4217 -19.398 3.1977
head 3.87352 -9.31986 0.183047
rclavicle -1.01778e-013 -1.59028e-014
rhumerus 4.62282 -29.5295 -45.4951
rradius 35.2725
rwrist 16.6494
rhand -26.1111 -19.9441
rfingers 7.12502
rthumb 0.438465 -49.9234
lclavicle -1.01778e-013 -1.59028e-014
lhumerus -27.0238 2.87394 82.1109
lradius 35.1551
lwrist -10.1123
lhand -13.0464 -8.75952
lfingers 7.12502
lthumb 13.0484 20.8123
rfemur -19.1932 -7.22864 36.0858
rtibia 29.1269
rfoot -19.2356 -14.4921
rtoes 41.2913
lfemur -24.8306 12.9409 -11.2828
ltibia 74.4927
lfoot 0.737475 -8.30841
ltoes -1.49049
416
root -26.9179 17.7564 -5.51349 183.656 29.6128 -178.594
lowerback 15.8 2.78714 2.90855
upperback 5.2723 4.93813 3.76125
thorax -3.33563 2.70542 1.39209
lowerneck -0.98465 -14.9434 1.77681
upperneck 12.8659 -19.7192 0.200813
head 4.27707 -9.44474 -0.961445
rclavicle -4.09496e-014 -3.97569e-014
rhumerus 4.42198 -28.7443 -45.321
rradius 33.2574
rwrist 18.3835
rhand -24.973 -16.7829
rfingers 7.12502
rthumb 1.5376 -46.7571
lclavicle -4.09496e-014 -3.97569e-014
lhumerus -30.3191 3.33335 82.4043
lradius 34.9752
lwrist -11.4267
lhand -17.1359 -12.7946
lfingers 7.12502
lthumb 9.10421 16.9889
rfemur -18.3658 -7.36181 35.6027
rtibia 27.8919
rfoot -18.2143 -14.0295
rtoes 42.6792
lfemur -26.1801 12.6684 -11.3345
ltibia 76.8168
lfoot -1.01099 -5.48667
ltoes 15.0707
